<svg width="1440" height="901" viewBox="0 0 1440 901" fill="none" xmlns="http://www.w3.org/2000/svg">
<path fill-rule="evenodd" clip-rule="evenodd" d="M-78.593 102.75C-68.3738 75.834 -44.4799 56.4851 -16.0274 52.0854L308.44 1.912C336.582 -2.43967 364.916 8.49627 382.837 30.6268L386.536 35.1941C404.384 28.8029 424.234 28.8562 442.457 35.9282L667.225 123.154L790.769 89.5656C817.793 82.2184 846.629 89.547 866.851 108.757L885.935 93.2018C908.231 75.0283 938.567 70.2235 965.388 80.6177L1137.48 147.309L1287.43 95.1391C1314.59 85.6873 1344.74 91.5479 1366.39 110.488L1613.76 326.916C1635.2 345.676 1645.05 374.423 1639.61 402.389L1576.35 727.826C1570.92 755.792 1551.02 778.758 1524.11 788.119L1213.68 896.122C1186.51 905.574 1156.36 899.713 1134.71 880.773L1107.71 857.146L1090.59 871.102C1068.29 889.275 1037.96 894.08 1011.14 883.686L866.489 827.63L661.412 883.386C633.63 890.939 603.932 882.981 583.649 862.549L555.702 834.397C535.175 845.718 510.434 847.577 488.128 838.921L259.611 750.24L100.554 774.835C72.4117 779.187 44.0778 768.251 26.1569 746.121L-182.511 488.437C-200.432 466.306 -205.238 436.318 -195.131 409.695L-78.593 102.75Z" fill="#07A53D"/>
</svg>
