<svg width="59" height="59" viewBox="0 0 59 59" fill="none" xmlns="http://www.w3.org/2000/svg">
<path d="M45.7572 0H13.2428C5.92901 0 0 5.92901 0 13.2428V45.7572C0 53.071 5.92901 59 13.2428 59H45.7572C53.071 59 59 53.071 59 45.7572V13.2428C59 5.92901 53.071 0 45.7572 0Z" fill="url(#paint0_linear_1609_2624)"/>
<path d="M20.437 10.2183H38.8298C39.2385 10.4226 39.8516 10.4226 40.2604 10.627C42.0539 10.9177 43.7309 11.7028 45.1028 12.8942C46.4746 14.0855 47.487 15.6359 48.0262 17.371C48.328 18.3709 48.5333 19.3974 48.6393 20.4365V38.4205C48.3471 40.6998 47.5055 42.8739 46.1869 44.7558C45.0557 46.0665 43.6375 47.0986 42.0425 47.7721C40.4475 48.4455 38.7188 48.7421 36.9905 48.6388H21.6632C18.9279 48.7715 16.2385 47.8993 14.1017 46.1864C12.8024 45.0638 11.777 43.6588 11.104 42.079C10.431 40.4993 10.1282 38.7865 10.2188 37.0717V22.7662C10.185 21.7402 10.2535 20.7133 10.4232 19.7008C10.6295 17.6056 11.491 15.6288 12.8851 14.0512C14.2793 12.4736 16.1351 11.3756 18.189 10.9131L20.437 10.2183ZM14.1017 29.6329V37.6031C14.0146 38.618 14.1504 39.6398 14.4996 40.5967C14.8488 41.5537 15.4029 42.4228 16.1232 43.1431C16.8435 43.8634 17.7126 44.4175 18.6696 44.7667C19.6265 45.1159 20.6483 45.2517 21.6632 45.1646C26.9767 45.3689 32.2902 45.3689 37.6036 45.1646C42.304 45.1646 44.9608 42.3035 45.1651 37.6031C45.3695 32.2896 45.3695 26.9761 45.1651 21.6627C45.2181 20.6557 45.0587 19.6489 44.6975 18.7075C44.3362 17.7661 43.7811 16.9112 43.0681 16.1982C42.3551 15.4852 41.5002 14.9301 40.5588 14.5688C39.6174 14.2076 38.6106 14.0482 37.6036 14.1012C32.2902 13.8968 26.9767 13.8968 21.6632 14.1012C20.6483 14.0141 19.6265 14.1498 18.6696 14.499C17.7126 14.8482 16.8435 15.4024 16.1232 16.1227C15.4029 16.843 14.8488 17.7121 14.4996 18.669C14.1504 19.626 14.0146 20.6477 14.1017 21.6627V29.6329Z" fill="white"/>
<path d="M19.7031 29.7145C19.7085 27.0604 20.7653 24.5164 22.6421 22.6396C24.5189 20.7628 27.0628 19.7061 29.717 19.7007C32.3564 19.753 34.8732 20.8248 36.74 22.6915C38.6067 24.5583 39.6786 27.0751 39.7308 29.7145C39.7254 32.3687 38.6687 34.9126 36.7919 36.7894C34.9151 38.6662 32.3712 39.723 29.717 39.7284C27.0775 39.6761 24.5607 38.6043 22.694 36.7376C20.8272 34.8708 19.7554 32.354 19.7031 29.7145ZM29.717 23.3792C28.4757 23.3591 27.2567 23.71 26.2162 24.387C25.1756 25.0641 24.3609 26.0364 23.8766 27.1795C23.3922 28.3225 23.2601 29.5841 23.4974 30.8027C23.7346 32.0212 24.3303 33.1412 25.2081 34.019C26.086 34.8968 27.2059 35.4925 28.4245 35.7298C29.643 35.967 30.9046 35.835 32.0477 35.3506C33.1907 34.8662 34.1631 34.0515 34.8401 33.011C35.5172 31.9705 35.8681 30.7514 35.8479 29.5102C35.8479 27.8841 35.202 26.3247 34.0522 25.175C32.9024 24.0252 31.343 23.3792 29.717 23.3792Z" fill="white"/>
<path d="M37.4819 19.2922C37.4705 18.9671 37.5261 18.6431 37.6453 18.3404C37.7645 18.0377 37.9448 17.7628 38.1748 17.5327C38.4048 17.3027 38.6798 17.1224 38.9825 17.0032C39.2852 16.884 39.6092 16.8284 39.9343 16.8398C40.5705 16.8829 41.1696 17.1551 41.6205 17.606C42.0714 18.0569 42.3436 18.656 42.3867 19.2922C42.3867 19.9426 42.1283 20.5664 41.6684 21.0263C41.2085 21.4862 40.5847 21.7446 39.9343 21.7446C39.2839 21.7446 38.6601 21.4862 38.2002 21.0263C37.7403 20.5664 37.4819 19.9426 37.4819 19.2922Z" fill="white"/>
<defs>
<linearGradient id="paint0_linear_1609_2624" x1="-3.7603" y1="62.2698" x2="65.7236" y2="-6.19224" gradientUnits="userSpaceOnUse">
<stop stop-color="#FED576"/>
<stop offset="0.26" stop-color="#F47133"/>
<stop offset="0.61" stop-color="#BC3081"/>
<stop offset="1" stop-color="#4C63D2"/>
</linearGradient>
</defs>
</svg>
