<svg width="296" height="296" viewBox="0 0 296 296" fill="none" xmlns="http://www.w3.org/2000/svg">
<g filter="url(#filter0_d_1571_2721)">
<rect x="18" y="16" width="260" height="260" rx="130" fill="url(#paint0_linear_1571_2721)"/>
</g>
<path d="M125.114 136.504C121.418 136.504 118.646 135.622 116.798 133.858C114.95 132.066 114.026 129.504 114.026 126.172V118.318C114.026 114.958 114.95 112.396 116.798 110.632C118.646 108.868 121.418 107.986 125.114 107.986C128.782 107.986 131.54 108.868 133.388 110.632C135.236 112.396 136.16 114.958 136.16 118.318V126.172C136.16 129.504 135.236 132.066 133.388 133.858C131.54 135.622 128.782 136.504 125.114 136.504ZM125.114 132.094C127.102 132.094 128.6 131.576 129.608 130.54C130.616 129.476 131.12 127.936 131.12 125.92V118.57C131.12 116.554 130.616 115.028 129.608 113.992C128.6 112.928 127.102 112.396 125.114 112.396C123.126 112.396 121.614 112.928 120.578 113.992C119.57 115.028 119.066 116.554 119.066 118.57V125.92C119.066 127.936 119.57 129.476 120.578 130.54C121.614 131.576 123.126 132.094 125.114 132.094ZM147.095 136.504C145.247 136.504 143.847 135.93 142.895 134.782C141.943 133.606 141.467 131.87 141.467 129.574V115.84C141.467 115.504 141.621 115.336 141.929 115.336H145.919C146.255 115.336 146.423 115.504 146.423 115.84V128.776C146.423 129.952 146.619 130.82 147.011 131.38C147.431 131.94 148.075 132.22 148.943 132.22C149.867 132.22 150.791 131.926 151.715 131.338C152.667 130.722 153.731 129.812 154.907 128.608L155.075 132.304C154.263 133.116 153.437 133.844 152.597 134.488C151.785 135.104 150.917 135.594 149.993 135.958C149.097 136.322 148.131 136.504 147.095 136.504ZM155.411 136C155.243 136 155.103 135.972 154.991 135.916C154.907 135.832 154.851 135.706 154.823 135.538C154.739 135.034 154.655 134.502 154.571 133.942C154.515 133.382 154.473 132.822 154.445 132.262L154.067 130.12V115.84C154.067 115.504 154.235 115.336 154.571 115.336H158.561C158.869 115.336 159.023 115.504 159.023 115.84V130.75C159.023 131.562 159.037 132.374 159.065 133.186C159.121 133.97 159.205 134.74 159.317 135.496C159.373 135.832 159.205 136 158.813 136H155.411ZM164.857 136C164.549 136 164.395 135.832 164.395 135.496V120.502C164.395 119.662 164.367 118.864 164.311 118.108C164.283 117.352 164.213 116.61 164.101 115.882C164.045 115.518 164.213 115.336 164.605 115.336H168.133C168.301 115.336 168.427 115.364 168.511 115.42C168.595 115.476 168.651 115.588 168.679 115.756C168.791 116.26 168.875 116.834 168.931 117.478C168.987 118.122 169.015 118.696 169.015 119.2L169.351 121.636V135.496C169.351 135.832 169.183 136 168.847 136H164.857ZM168.889 123.484L168.637 119.2C169.225 118.36 169.883 117.618 170.611 116.974C171.367 116.302 172.123 115.784 172.879 115.42C173.663 115.028 174.377 114.832 175.021 114.832C175.497 114.832 175.875 114.874 176.155 114.958C176.295 115.014 176.393 115.084 176.449 115.168C176.505 115.252 176.533 115.364 176.533 115.504C176.589 116.176 176.603 116.904 176.575 117.688C176.575 118.444 176.533 119.158 176.449 119.83C176.421 119.998 176.351 120.124 176.239 120.208C176.155 120.264 176.015 120.278 175.819 120.25C175.651 120.222 175.441 120.194 175.189 120.166C174.937 120.138 174.671 120.124 174.391 120.124C173.775 120.124 173.131 120.264 172.459 120.544C171.815 120.796 171.185 121.174 170.569 121.678C169.981 122.182 169.421 122.784 168.889 123.484ZM102.364 182C102.056 182 101.86 181.874 101.776 181.622L92.9981 155.036C92.8861 154.672 93.0121 154.49 93.3761 154.49H97.7861C98.0941 154.49 98.2901 154.616 98.3741 154.868L103.414 171.458C103.722 172.466 104.016 173.474 104.296 174.482C104.576 175.49 104.842 176.498 105.094 177.506H105.178C105.43 176.498 105.696 175.504 105.976 174.524C106.284 173.516 106.578 172.508 106.858 171.5L112.024 154.91C112.108 154.63 112.304 154.49 112.612 154.49H117.022C117.386 154.49 117.512 154.672 117.4 155.036L108.454 181.622C108.37 181.874 108.188 182 107.908 182H102.364ZM121.114 182C120.806 182 120.652 181.832 120.652 181.496V161.84C120.652 161.504 120.806 161.336 121.114 161.336H125.104C125.44 161.336 125.608 161.504 125.608 161.84V181.496C125.608 181.832 125.44 182 125.104 182H121.114ZM123.13 158.354C122.178 158.354 121.45 158.102 120.946 157.598C120.47 157.094 120.232 156.45 120.232 155.666V155.036C120.232 154.224 120.47 153.58 120.946 153.104C121.45 152.6 122.178 152.348 123.13 152.348C124.082 152.348 124.796 152.6 125.272 153.104C125.748 153.58 125.986 154.224 125.986 155.036V155.666C125.986 156.45 125.748 157.094 125.272 157.598C124.796 158.102 124.082 158.354 123.13 158.354ZM138.129 182.504C135.357 182.504 133.313 181.958 131.997 180.866C130.709 179.774 130.107 178.08 130.191 175.784C130.191 175.476 130.359 175.322 130.695 175.322H134.475C134.755 175.322 134.895 175.476 134.895 175.784C134.895 176.792 135.161 177.534 135.693 178.01C136.225 178.486 137.037 178.724 138.129 178.724C139.277 178.724 140.131 178.542 140.691 178.178C141.251 177.814 141.531 177.254 141.531 176.498C141.531 175.966 141.349 175.518 140.985 175.154C140.621 174.762 140.033 174.398 139.221 174.062L134.433 172.046C132.977 171.43 131.927 170.702 131.283 169.862C130.667 169.022 130.359 167.93 130.359 166.586C130.359 164.682 130.975 163.254 132.207 162.302C133.467 161.322 135.399 160.832 138.003 160.832C140.663 160.832 142.665 161.336 144.009 162.344C145.353 163.352 146.025 164.822 146.025 166.754C146.025 167.062 145.857 167.216 145.521 167.216H141.741C141.601 167.216 141.475 167.174 141.363 167.09C141.279 166.978 141.237 166.796 141.237 166.544C141.237 165.928 140.971 165.452 140.439 165.116C139.907 164.752 139.165 164.57 138.213 164.57C137.233 164.57 136.505 164.738 136.029 165.074C135.553 165.41 135.315 165.914 135.315 166.586C135.315 167.09 135.455 167.482 135.735 167.762C136.043 168.042 136.631 168.364 137.499 168.728L142.287 170.744C143.771 171.36 144.835 172.102 145.479 172.97C146.151 173.81 146.487 174.916 146.487 176.288C146.487 178.332 145.773 179.886 144.345 180.95C142.917 181.986 140.845 182.504 138.129 182.504ZM151.178 182C150.87 182 150.716 181.832 150.716 181.496V161.84C150.716 161.504 150.87 161.336 151.178 161.336H155.168C155.504 161.336 155.672 161.504 155.672 161.84V181.496C155.672 181.832 155.504 182 155.168 182H151.178ZM153.194 158.354C152.242 158.354 151.514 158.102 151.01 157.598C150.534 157.094 150.296 156.45 150.296 155.666V155.036C150.296 154.224 150.534 153.58 151.01 153.104C151.514 152.6 152.242 152.348 153.194 152.348C154.146 152.348 154.86 152.6 155.336 153.104C155.812 153.58 156.05 154.224 156.05 155.036V155.666C156.05 156.45 155.812 157.094 155.336 157.598C154.86 158.102 154.146 158.354 153.194 158.354ZM169.747 182.504C166.779 182.504 164.483 181.804 162.859 180.404C161.263 178.976 160.465 176.82 160.465 173.936V169.4C160.465 166.544 161.263 164.402 162.859 162.974C164.455 161.546 166.751 160.832 169.747 160.832C172.715 160.832 174.997 161.546 176.593 162.974C178.189 164.402 178.987 166.544 178.987 169.4V173.936C178.987 176.82 178.189 178.976 176.593 180.404C175.025 181.804 172.743 182.504 169.747 182.504ZM169.747 178.262C171.259 178.262 172.351 177.884 173.023 177.128C173.695 176.344 174.031 175.126 174.031 173.474V169.862C174.031 168.21 173.695 167.006 173.023 166.25C172.351 165.466 171.259 165.074 169.747 165.074C168.235 165.074 167.129 165.466 166.429 166.25C165.757 167.006 165.421 168.21 165.421 169.862V173.474C165.421 175.126 165.757 176.344 166.429 177.128C167.129 177.884 168.235 178.262 169.747 178.262ZM197.466 182C197.13 182 196.962 181.832 196.962 181.496V168.56C196.962 167.384 196.724 166.516 196.248 165.956C195.772 165.396 195.044 165.116 194.064 165.116C193.084 165.116 192.118 165.41 191.166 165.998C190.242 166.558 189.178 167.44 187.974 168.644L187.806 164.99C188.618 164.122 189.43 163.38 190.242 162.764C191.082 162.148 191.95 161.672 192.846 161.336C193.742 161 194.722 160.832 195.786 160.832C197.802 160.832 199.328 161.406 200.364 162.554C201.4 163.674 201.918 165.41 201.918 167.762V181.496C201.918 181.832 201.75 182 201.414 182H197.466ZM184.278 182C183.97 182 183.816 181.832 183.816 181.496V166.586C183.816 165.802 183.774 164.976 183.69 164.108C183.634 163.24 183.578 162.512 183.522 161.924C183.466 161.532 183.634 161.336 184.026 161.336H187.554C187.722 161.336 187.848 161.364 187.932 161.42C188.016 161.476 188.072 161.602 188.1 161.798C188.156 162.022 188.212 162.358 188.268 162.806C188.324 163.226 188.38 163.674 188.436 164.15C188.492 164.626 188.52 165.046 188.52 165.41L188.772 167.09V181.496C188.772 181.832 188.604 182 188.268 182H184.278Z" fill="white"/>
<defs>
<filter id="filter0_d_1571_2721" x="0" y="0" width="296" height="296" filterUnits="userSpaceOnUse" color-interpolation-filters="sRGB">
<feFlood flood-opacity="0" result="BackgroundImageFix"/>
<feColorMatrix in="SourceAlpha" type="matrix" values="0 0 0 0 0 0 0 0 0 0 0 0 0 0 0 0 0 0 127 0" result="hardAlpha"/>
<feMorphology radius="2" operator="dilate" in="SourceAlpha" result="effect1_dropShadow_1571_2721"/>
<feOffset dy="2"/>
<feGaussianBlur stdDeviation="8"/>
<feComposite in2="hardAlpha" operator="out"/>
<feColorMatrix type="matrix" values="0 0 0 0 0 0 0 0 0 0.1 0 0 0 0 0.0344262 0 0 0 0.16 0"/>
<feBlend mode="normal" in2="BackgroundImageFix" result="effect1_dropShadow_1571_2721"/>
<feBlend mode="normal" in="SourceGraphic" in2="effect1_dropShadow_1571_2721" result="shape"/>
</filter>
<linearGradient id="paint0_linear_1571_2721" x1="18" y1="62.459" x2="303.65" y2="119.225" gradientUnits="userSpaceOnUse">
<stop offset="0.0858373" stop-color="#068531"/>
<stop offset="0.46498" stop-color="#04D44B"/>
<stop offset="0.931783" stop-color="#068A33"/>
</linearGradient>
</defs>
</svg>
