<svg width="1440" height="901" viewBox="0 0 1440 901" fill="none" xmlns="http://www.w3.org/2000/svg">
<path fill-rule="evenodd" clip-rule="evenodd" d="M-108.21 102.75C-97.991 75.834 -74.0971 56.4851 -45.6446 52.0854L278.823 1.91202C306.965 -2.43969 335.299 8.49627 353.22 30.6268L356.918 35.1941C374.767 28.8029 394.616 28.8562 412.84 35.9282L637.608 123.154L761.152 89.5656C788.176 82.2184 817.012 89.547 837.234 108.757L856.318 93.2017C878.614 75.0283 908.95 70.2235 935.77 80.6177L1107.86 147.309L1257.81 95.1386C1284.98 85.6868 1315.13 91.5474 1336.77 110.488L1584.14 326.916C1605.58 345.675 1615.43 374.422 1609.99 402.389L1546.74 727.826C1541.3 755.792 1521.4 778.757 1494.49 788.119L1184.06 896.121C1156.9 905.573 1126.75 899.713 1105.1 880.772L1078.09 857.145L1060.97 871.102C1038.67 889.276 1008.34 894.08 981.518 883.686L836.872 827.63L631.795 883.386C604.013 890.939 574.315 882.981 554.031 862.549L526.085 834.397C505.558 845.718 480.817 847.577 458.511 838.921L229.994 750.24L70.9367 774.835C42.7945 779.187 14.4606 768.251 -3.4603 746.121L-212.128 488.437C-230.049 466.306 -234.855 436.318 -224.748 409.695L-108.21 102.75Z" fill="#07A53D"/>
</svg>
