<svg width="60" height="60" viewBox="0 0 60 60" fill="none" xmlns="http://www.w3.org/2000/svg">
<path d="M56.6667 0H3.33333C1.49238 0 0 1.49238 0 3.33333V56.6667C0 58.5076 1.49238 60 3.33333 60H56.6667C58.5076 60 60 58.5076 60 56.6667V3.33333C60 1.49238 58.5076 0 56.6667 0Z" fill="#117EB8"/>
<path fill-rule="evenodd" clip-rule="evenodd" d="M10.9499 23.2065H18.969V49.0082H10.9499V23.2065ZM14.9607 10.3807C17.5249 10.3807 19.6082 12.464 19.6082 15.0282C19.6082 17.5949 17.5249 19.679 14.9607 19.679C14.3427 19.6907 13.7287 19.5791 13.1544 19.3508C12.58 19.1224 12.057 18.7818 11.6159 18.3489C11.1747 17.916 10.8243 17.3996 10.5851 16.8297C10.3459 16.2598 10.2227 15.6479 10.2227 15.0299C10.2227 14.4118 10.3459 13.8 10.5851 13.2301C10.8243 12.6602 11.1747 12.1437 11.6159 11.7109C12.057 11.278 12.58 10.9374 13.1544 10.709C13.7287 10.4806 14.3427 10.369 14.9607 10.3807ZM23.999 23.2057H31.6907V26.7315H31.7973C32.8682 24.7032 35.484 22.5649 39.3849 22.5649C47.5049 22.5649 49.0049 27.909 49.0049 34.8565V49.0082H40.9907V36.4607C40.9907 33.469 40.9357 29.6199 36.824 29.6199C32.6515 29.6199 32.0107 32.879 32.0107 36.2449V49.0082H23.9982V23.2065L23.999 23.2057Z" fill="white"/>
</svg>
