<svg width="60" height="60" viewBox="0 0 60 60" fill="none" xmlns="http://www.w3.org/2000/svg">
<path d="M24.4527 43.6365C23.4778 43.6365 23.6528 43.2604 23.3028 42.3325L20.4531 32.903L38.1511 21.8184L40.2259 22.3701L38.501 27.0848L24.4527 43.6365Z" fill="#C8DAEA"/>
<path d="M24.5469 43.6361C25.2774 43.6361 25.594 43.281 26.0079 42.875C26.641 42.2408 34.7741 33.9955 34.7741 33.9955L29.7823 32.7271L25.1556 35.7714L24.5469 43.3824V43.6361Z" fill="#A9C9DD"/>
<path d="M60 30C60 46.575 46.575 60 30 60C13.425 60 0 46.575 0 30C0 13.425 13.425 0 30 0C46.575 0 60 13.425 60 30Z" fill="url(#paint0_linear_1609_2637)"/>
<path d="M24.8133 36.4145L36.6968 45.3134C38.0472 46.0612 39.0293 45.6873 39.373 44.0421L44.2099 20.91C44.7009 18.8909 43.4487 17.9935 42.1474 18.5918L13.7647 29.7091C11.825 30.5068 11.8496 31.6036 13.4209 32.0772L20.713 34.3954L37.5807 23.6021C38.3663 23.1035 39.1029 23.3777 38.5137 23.9261L24.8133 36.4145Z" fill="url(#paint1_linear_1609_2637)"/>
<defs>
<linearGradient id="paint0_linear_1609_2637" x1="38.7925" y1="9.4825" x2="23.7925" y2="44.482" gradientUnits="userSpaceOnUse">
<stop stop-color="#37AEE2"/>
<stop offset="1" stop-color="#1E96C8"/>
</linearGradient>
<linearGradient id="paint1_linear_1609_2637" x1="31.9314" y1="31.2683" x2="38.2039" y2="41.1538" gradientUnits="userSpaceOnUse">
<stop stop-color="#EFF7FC"/>
<stop offset="1" stop-color="white"/>
</linearGradient>
</defs>
</svg>
