<svg width="60" height="60" viewBox="0 0 60 60" fill="none" xmlns="http://www.w3.org/2000/svg">
<path d="M30 60C46.5685 60 60 46.5685 60 30C60 13.4315 46.5685 0 30 0C13.4315 0 0 13.4315 0 30C0 46.5685 13.4315 60 30 60Z" fill="#2DAAE1"/>
<path d="M49.2367 18.0666C47.8217 18.6945 46.3018 19.119 44.7038 19.3098C46.3347 18.3332 47.5841 16.7856 48.174 14.9437C46.6248 15.8639 44.9293 16.5117 43.1613 16.8589C41.7224 15.3252 39.6706 14.3677 37.4005 14.3677C33.0434 14.3677 29.5097 17.8999 29.5097 22.2597C29.5097 22.8774 29.5792 23.48 29.713 24.0586C23.1538 23.729 17.3387 20.5871 13.4464 15.813C12.7667 16.9789 12.3777 18.3346 12.3777 19.781C12.3777 22.5187 13.7711 24.9342 15.8884 26.3491C14.635 26.3103 13.4091 25.972 12.3132 25.3624V25.4622C12.3132 29.2863 15.0332 32.4749 18.6438 33.2001C17.9805 33.3819 17.2844 33.4768 16.5643 33.4768C16.0552 33.4768 15.5612 33.4286 15.0787 33.3379C16.083 36.4722 18.9976 38.7538 22.4501 38.8182C19.7491 40.9356 16.3457 42.1977 12.6493 42.1977C12.0126 42.1977 11.3834 42.1597 10.7656 42.0852C14.2588 44.3251 18.4063 45.6327 22.8633 45.6327C37.379 45.6327 45.3178 33.607 45.3178 23.1782C45.3178 22.8358 45.3102 22.496 45.2937 22.1574C46.8405 21.0386 48.1756 19.6534 49.2367 18.0666Z" fill="white"/>
</svg>
