<svg width="60" height="60" viewBox="0 0 60 60" fill="none" xmlns="http://www.w3.org/2000/svg">
<path d="M52.5 0H7.5C3.36375 0 0 3.36375 0 7.5V52.5C0 56.6362 3.36375 60 7.5 60H52.5C56.6362 60 60 56.6362 60 52.5V7.5C60 3.36375 56.6362 0 52.5 0Z" fill="#1976D2"/>
<path fill-rule="evenodd" clip-rule="evenodd" d="M50.625 30H41.25V22.5C41.25 20.43 42.93 20.625 45 20.625H48.75V11.25H41.25C38.2663 11.25 35.4048 12.4353 33.295 14.545C31.1853 16.6548 30 19.5163 30 22.5V30H22.5V39.375H30V60H41.25V39.375H46.875L50.625 30Z" fill="#FAFAFA"/>
</svg>
