<svg width="298" height="296" viewBox="0 0 298 296" fill="none" xmlns="http://www.w3.org/2000/svg">
<g filter="url(#filter0_d_1571_2715)">
<rect x="18" y="16" width="261.716" height="260" rx="130" fill="url(#paint0_linear_1571_2715)"/>
</g>
<path d="M125.614 131.504C121.918 131.504 119.146 130.622 117.298 128.858C115.45 127.066 114.526 124.504 114.526 121.172V113.318C114.526 109.958 115.45 107.396 117.298 105.632C119.146 103.868 121.918 102.986 125.614 102.986C129.282 102.986 132.04 103.868 133.888 105.632C135.736 107.396 136.66 109.958 136.66 113.318V121.172C136.66 124.504 135.736 127.066 133.888 128.858C132.04 130.622 129.282 131.504 125.614 131.504ZM125.614 127.094C127.602 127.094 129.1 126.576 130.108 125.54C131.116 124.476 131.62 122.936 131.62 120.92V113.57C131.62 111.554 131.116 110.028 130.108 108.992C129.1 107.928 127.602 107.396 125.614 107.396C123.626 107.396 122.114 107.928 121.078 108.992C120.07 110.028 119.566 111.554 119.566 113.57V120.92C119.566 122.936 120.07 124.476 121.078 125.54C122.114 126.576 123.626 127.094 125.614 127.094ZM147.595 131.504C145.747 131.504 144.347 130.93 143.395 129.782C142.443 128.606 141.967 126.87 141.967 124.574V110.84C141.967 110.504 142.121 110.336 142.429 110.336H146.419C146.755 110.336 146.923 110.504 146.923 110.84V123.776C146.923 124.952 147.119 125.82 147.511 126.38C147.931 126.94 148.575 127.22 149.443 127.22C150.367 127.22 151.291 126.926 152.215 126.338C153.167 125.722 154.231 124.812 155.407 123.608L155.575 127.304C154.763 128.116 153.937 128.844 153.097 129.488C152.285 130.104 151.417 130.594 150.493 130.958C149.597 131.322 148.631 131.504 147.595 131.504ZM155.911 131C155.743 131 155.603 130.972 155.491 130.916C155.407 130.832 155.351 130.706 155.323 130.538C155.239 130.034 155.155 129.502 155.071 128.942C155.015 128.382 154.973 127.822 154.945 127.262L154.567 125.12V110.84C154.567 110.504 154.735 110.336 155.071 110.336H159.061C159.369 110.336 159.523 110.504 159.523 110.84V125.75C159.523 126.562 159.537 127.374 159.565 128.186C159.621 128.97 159.705 129.74 159.817 130.496C159.873 130.832 159.705 131 159.313 131H155.911ZM165.357 131C165.049 131 164.895 130.832 164.895 130.496V115.502C164.895 114.662 164.867 113.864 164.811 113.108C164.783 112.352 164.713 111.61 164.601 110.882C164.545 110.518 164.713 110.336 165.105 110.336H168.633C168.801 110.336 168.927 110.364 169.011 110.42C169.095 110.476 169.151 110.588 169.179 110.756C169.291 111.26 169.375 111.834 169.431 112.478C169.487 113.122 169.515 113.696 169.515 114.2L169.851 116.636V130.496C169.851 130.832 169.683 131 169.347 131H165.357ZM169.389 118.484L169.137 114.2C169.725 113.36 170.383 112.618 171.111 111.974C171.867 111.302 172.623 110.784 173.379 110.42C174.163 110.028 174.877 109.832 175.521 109.832C175.997 109.832 176.375 109.874 176.655 109.958C176.795 110.014 176.893 110.084 176.949 110.168C177.005 110.252 177.033 110.364 177.033 110.504C177.089 111.176 177.103 111.904 177.075 112.688C177.075 113.444 177.033 114.158 176.949 114.83C176.921 114.998 176.851 115.124 176.739 115.208C176.655 115.264 176.515 115.278 176.319 115.25C176.151 115.222 175.941 115.194 175.689 115.166C175.437 115.138 175.171 115.124 174.891 115.124C174.275 115.124 173.631 115.264 172.959 115.544C172.315 115.796 171.685 116.174 171.069 116.678C170.481 117.182 169.921 117.784 169.389 118.484ZM82.5631 177C82.4231 177 82.3111 176.958 82.2271 176.874C82.1431 176.762 82.1011 176.636 82.1011 176.496L82.6471 149.994C82.6471 149.658 82.8151 149.49 83.1511 149.49H88.5691C88.8211 149.49 89.0031 149.616 89.1151 149.868L96.1291 165.156L103.017 149.868C103.157 149.616 103.353 149.49 103.605 149.49H109.023C109.331 149.49 109.485 149.658 109.485 149.994L110.073 176.496C110.073 176.636 110.031 176.762 109.947 176.874C109.863 176.958 109.737 177 109.569 177H105.621C105.285 177 105.117 176.832 105.117 176.496L104.781 162.93C104.753 161.81 104.767 160.69 104.823 159.57C104.879 158.422 104.921 157.302 104.949 156.21H104.823C104.375 157.302 103.899 158.408 103.395 159.528C102.919 160.62 102.415 161.698 101.883 162.762L96.7171 173.64C96.6051 173.864 96.4091 173.976 96.1291 173.976H95.9611C95.7091 173.976 95.5271 173.864 95.4151 173.64L90.2071 162.636C89.6751 161.6 89.1711 160.536 88.6951 159.444C88.2191 158.324 87.7711 157.246 87.3511 156.21H87.2251C87.2811 157.274 87.3231 158.38 87.3511 159.528C87.3791 160.648 87.3791 161.754 87.3511 162.846L87.0151 176.496C87.0151 176.832 86.8611 177 86.5531 177H82.5631ZM115.708 177C115.4 177 115.246 176.832 115.246 176.496V156.84C115.246 156.504 115.4 156.336 115.708 156.336H119.698C120.034 156.336 120.202 156.504 120.202 156.84V176.496C120.202 176.832 120.034 177 119.698 177H115.708ZM117.724 153.354C116.772 153.354 116.044 153.102 115.54 152.598C115.064 152.094 114.826 151.45 114.826 150.666V150.036C114.826 149.224 115.064 148.58 115.54 148.104C116.044 147.6 116.772 147.348 117.724 147.348C118.676 147.348 119.39 147.6 119.866 148.104C120.342 148.58 120.58 149.224 120.58 150.036V150.666C120.58 151.45 120.342 152.094 119.866 152.598C119.39 153.102 118.676 153.354 117.724 153.354ZM132.723 177.504C129.951 177.504 127.907 176.958 126.591 175.866C125.303 174.774 124.701 173.08 124.785 170.784C124.785 170.476 124.953 170.322 125.289 170.322H129.069C129.349 170.322 129.489 170.476 129.489 170.784C129.489 171.792 129.755 172.534 130.287 173.01C130.819 173.486 131.631 173.724 132.723 173.724C133.871 173.724 134.725 173.542 135.285 173.178C135.845 172.814 136.125 172.254 136.125 171.498C136.125 170.966 135.943 170.518 135.579 170.154C135.215 169.762 134.627 169.398 133.815 169.062L129.027 167.046C127.571 166.43 126.521 165.702 125.877 164.862C125.261 164.022 124.953 162.93 124.953 161.586C124.953 159.682 125.569 158.254 126.801 157.302C128.061 156.322 129.993 155.832 132.597 155.832C135.257 155.832 137.259 156.336 138.603 157.344C139.947 158.352 140.619 159.822 140.619 161.754C140.619 162.062 140.451 162.216 140.115 162.216H136.335C136.195 162.216 136.069 162.174 135.957 162.09C135.873 161.978 135.831 161.796 135.831 161.544C135.831 160.928 135.565 160.452 135.033 160.116C134.501 159.752 133.759 159.57 132.807 159.57C131.827 159.57 131.099 159.738 130.623 160.074C130.147 160.41 129.909 160.914 129.909 161.586C129.909 162.09 130.049 162.482 130.329 162.762C130.637 163.042 131.225 163.364 132.093 163.728L136.881 165.744C138.365 166.36 139.429 167.102 140.073 167.97C140.745 168.81 141.081 169.916 141.081 171.288C141.081 173.332 140.367 174.886 138.939 175.95C137.511 176.986 135.439 177.504 132.723 177.504ZM152 177.504C149.228 177.504 147.184 176.958 145.868 175.866C144.58 174.774 143.978 173.08 144.062 170.784C144.062 170.476 144.23 170.322 144.566 170.322H148.346C148.626 170.322 148.766 170.476 148.766 170.784C148.766 171.792 149.032 172.534 149.564 173.01C150.096 173.486 150.908 173.724 152 173.724C153.148 173.724 154.002 173.542 154.562 173.178C155.122 172.814 155.402 172.254 155.402 171.498C155.402 170.966 155.22 170.518 154.856 170.154C154.492 169.762 153.904 169.398 153.092 169.062L148.304 167.046C146.848 166.43 145.798 165.702 145.154 164.862C144.538 164.022 144.23 162.93 144.23 161.586C144.23 159.682 144.846 158.254 146.078 157.302C147.338 156.322 149.27 155.832 151.874 155.832C154.534 155.832 156.536 156.336 157.88 157.344C159.224 158.352 159.896 159.822 159.896 161.754C159.896 162.062 159.728 162.216 159.392 162.216H155.612C155.472 162.216 155.346 162.174 155.234 162.09C155.15 161.978 155.108 161.796 155.108 161.544C155.108 160.928 154.842 160.452 154.31 160.116C153.778 159.752 153.036 159.57 152.084 159.57C151.104 159.57 150.376 159.738 149.9 160.074C149.424 160.41 149.186 160.914 149.186 161.586C149.186 162.09 149.326 162.482 149.606 162.762C149.914 163.042 150.502 163.364 151.37 163.728L156.158 165.744C157.642 166.36 158.706 167.102 159.35 167.97C160.022 168.81 160.358 169.916 160.358 171.288C160.358 173.332 159.644 174.886 158.216 175.95C156.788 176.986 154.716 177.504 152 177.504ZM165.049 177C164.741 177 164.587 176.832 164.587 176.496V156.84C164.587 156.504 164.741 156.336 165.049 156.336H169.039C169.375 156.336 169.543 156.504 169.543 156.84V176.496C169.543 176.832 169.375 177 169.039 177H165.049ZM167.065 153.354C166.113 153.354 165.385 153.102 164.881 152.598C164.405 152.094 164.167 151.45 164.167 150.666V150.036C164.167 149.224 164.405 148.58 164.881 148.104C165.385 147.6 166.113 147.348 167.065 147.348C168.017 147.348 168.731 147.6 169.207 148.104C169.683 148.58 169.921 149.224 169.921 150.036V150.666C169.921 151.45 169.683 152.094 169.207 152.598C168.731 153.102 168.017 153.354 167.065 153.354ZM183.618 177.504C180.65 177.504 178.354 176.804 176.73 175.404C175.134 173.976 174.336 171.82 174.336 168.936V164.4C174.336 161.544 175.134 159.402 176.73 157.974C178.326 156.546 180.622 155.832 183.618 155.832C186.586 155.832 188.868 156.546 190.464 157.974C192.06 159.402 192.858 161.544 192.858 164.4V168.936C192.858 171.82 192.06 173.976 190.464 175.404C188.896 176.804 186.614 177.504 183.618 177.504ZM183.618 173.262C185.13 173.262 186.222 172.884 186.894 172.128C187.566 171.344 187.902 170.126 187.902 168.474V164.862C187.902 163.21 187.566 162.006 186.894 161.25C186.222 160.466 185.13 160.074 183.618 160.074C182.106 160.074 181 160.466 180.3 161.25C179.628 162.006 179.292 163.21 179.292 164.862V168.474C179.292 170.126 179.628 171.344 180.3 172.128C181 172.884 182.106 173.262 183.618 173.262ZM211.337 177C211.001 177 210.833 176.832 210.833 176.496V163.56C210.833 162.384 210.595 161.516 210.119 160.956C209.643 160.396 208.915 160.116 207.935 160.116C206.955 160.116 205.989 160.41 205.037 160.998C204.113 161.558 203.049 162.44 201.845 163.644L201.677 159.99C202.489 159.122 203.301 158.38 204.113 157.764C204.953 157.148 205.821 156.672 206.717 156.336C207.613 156 208.593 155.832 209.657 155.832C211.673 155.832 213.199 156.406 214.235 157.554C215.271 158.674 215.789 160.41 215.789 162.762V176.496C215.789 176.832 215.621 177 215.285 177H211.337ZM198.149 177C197.841 177 197.687 176.832 197.687 176.496V161.586C197.687 160.802 197.645 159.976 197.561 159.108C197.505 158.24 197.449 157.512 197.393 156.924C197.337 156.532 197.505 156.336 197.897 156.336H201.425C201.593 156.336 201.719 156.364 201.803 156.42C201.887 156.476 201.943 156.602 201.971 156.798C202.027 157.022 202.083 157.358 202.139 157.806C202.195 158.226 202.251 158.674 202.307 159.15C202.363 159.626 202.391 160.046 202.391 160.41L202.643 162.09V176.496C202.643 176.832 202.475 177 202.139 177H198.149Z" fill="white"/>
<defs>
<filter id="filter0_d_1571_2715" x="0" y="0" width="297.717" height="296" filterUnits="userSpaceOnUse" color-interpolation-filters="sRGB">
<feFlood flood-opacity="0" result="BackgroundImageFix"/>
<feColorMatrix in="SourceAlpha" type="matrix" values="0 0 0 0 0 0 0 0 0 0 0 0 0 0 0 0 0 0 127 0" result="hardAlpha"/>
<feMorphology radius="2" operator="dilate" in="SourceAlpha" result="effect1_dropShadow_1571_2715"/>
<feOffset dy="2"/>
<feGaussianBlur stdDeviation="8"/>
<feComposite in2="hardAlpha" operator="out"/>
<feColorMatrix type="matrix" values="0 0 0 0 0 0 0 0 0 0.1 0 0 0 0 0.0344262 0 0 0 0.16 0"/>
<feBlend mode="normal" in2="BackgroundImageFix" result="effect1_dropShadow_1571_2715"/>
<feBlend mode="normal" in="SourceGraphic" in2="effect1_dropShadow_1571_2715" result="shape"/>
</filter>
<linearGradient id="paint0_linear_1571_2715" x1="6.84488" y1="73.9208" x2="300.531" y2="120.371" gradientUnits="userSpaceOnUse">
<stop offset="0.105795" stop-color="#068531"/>
<stop offset="0.46498" stop-color="#04D44B"/>
<stop offset="0.936398" stop-color="#068A33"/>
</linearGradient>
</defs>
</svg>
