<svg width="498" height="120" viewBox="0 0 498 120" fill="none" xmlns="http://www.w3.org/2000/svg">
<path d="M74.4893 57.1237C70.4853 54.6647 66.0501 52.5584 61.264 50.9173C35.9432 42.2348 10.3891 49.8581 4.18731 67.9443C3.89862 68.7862 3.65695 69.636 3.46111 70.4919C-4.28199 56.1336 1.18006 34.0984 17.6383 17.6402C36.5662 -1.28765 62.8703 -5.67167 76.3902 7.84824C87.7671 19.2251 86.4661 39.6546 74.4893 57.1237Z" fill="#082C25"/>
<path fill-rule="evenodd" clip-rule="evenodd" d="M7.84647 76.3921C21.3664 89.912 47.6705 85.528 66.5984 66.6001C69.5986 63.5999 72.2334 60.4143 74.4894 57.1238C91.6688 67.6743 100.912 84.7189 95.8822 99.3866C89.6804 117.473 64.1263 125.096 38.8055 116.414C14.6633 108.135 -0.550225 88.0227 3.46129 70.4918C4.62319 72.6463 6.08243 74.628 7.84647 76.3921Z" fill="#082C25"/>
<path d="M137.248 104.672V14H171.958C178.511 14 183.957 15.033 188.295 17.0991C192.664 19.1357 195.925 21.9249 198.08 25.4668C200.264 29.0087 201.356 33.0228 201.356 37.5091C201.356 41.1986 200.648 44.3568 199.231 46.9836C197.814 49.581 195.91 51.6914 193.52 53.3147C191.129 54.9381 188.458 56.1039 185.506 56.8123V57.6978C188.723 57.8749 191.808 58.8636 194.759 60.6641C197.74 62.435 200.175 64.9439 202.064 68.1906C203.953 71.4373 204.898 75.3629 204.898 79.9673C204.898 84.6603 203.761 88.881 201.489 92.6295C199.216 96.3484 195.792 99.2852 191.217 101.44C186.642 103.594 180.887 104.672 173.951 104.672H137.248ZM153.674 90.9471H171.339C177.301 90.9471 181.595 89.8107 184.222 87.538C186.879 85.2358 188.207 82.2842 188.207 78.6833C188.207 75.9974 187.543 73.5772 186.214 71.4225C184.886 69.2384 182.997 67.5265 180.547 66.2868C178.098 65.0176 175.176 64.3831 171.781 64.3831H153.674V90.9471ZM153.674 52.5621H169.922C172.755 52.5621 175.308 52.0456 177.581 51.0125C179.854 49.95 181.64 48.4594 182.938 46.5409C184.266 44.5929 184.931 42.2907 184.931 39.6343C184.931 36.1219 183.691 33.2294 181.212 30.9567C178.762 28.684 175.117 27.5476 170.276 27.5476H153.674V52.5621Z" fill="#082C25"/>
<path d="M248.585 106C241.766 106 235.878 104.583 230.919 101.75C225.99 98.8867 222.198 94.8431 219.541 89.6189C216.885 84.3651 215.557 78.1816 215.557 71.0683C215.557 64.0731 216.885 57.9339 219.541 52.6506C222.227 47.3378 225.976 43.2056 230.787 40.2541C235.598 37.273 241.25 35.7825 247.743 35.7825C251.935 35.7825 255.89 36.4613 259.609 37.8191C263.357 39.1473 266.663 41.2133 269.526 44.0173C272.418 46.8213 274.691 50.3927 276.344 54.7315C277.997 59.0407 278.823 64.1765 278.823 70.1386V75.0529H223.083V64.2502H263.46C263.431 61.1806 262.767 58.4504 261.468 56.0597C260.169 53.6394 258.354 51.7356 256.022 50.3484C253.72 48.9612 251.034 48.2676 247.965 48.2676C244.688 48.2676 241.811 49.0645 239.331 50.6583C236.852 52.2226 234.919 54.2887 233.532 56.8566C232.174 59.3949 231.48 62.1842 231.451 65.2243V74.6545C231.451 78.6096 232.174 82.0039 233.62 84.8373C235.066 87.6413 237.088 89.796 239.686 91.3013C242.283 92.777 245.323 93.5149 248.806 93.5149C251.138 93.5149 253.248 93.1902 255.137 92.5409C257.026 91.862 258.664 90.8733 260.051 89.5746C261.439 88.2759 262.486 86.6673 263.195 84.7488L278.159 86.4312C277.215 90.3863 275.414 93.8396 272.758 96.7911C270.131 99.7132 266.766 101.986 262.663 103.609C258.561 105.203 253.868 106 248.585 106Z" fill="#082C25"/>
<path d="M322.488 106C315.67 106 309.781 104.583 304.823 101.75C299.894 98.8867 296.101 94.8431 293.445 89.6189C290.788 84.3651 289.46 78.1816 289.46 71.0683C289.46 64.0731 290.788 57.9339 293.445 52.6506C296.13 47.3378 299.879 43.2056 304.69 40.2541C309.501 37.273 315.153 35.7825 321.647 35.7825C325.838 35.7825 329.793 36.4613 333.512 37.8191C337.26 39.1473 340.566 41.2133 343.429 44.0173C346.322 46.8213 348.594 50.3927 350.247 54.7315C351.9 59.0407 352.727 64.1765 352.727 70.1386V75.0529H296.986V64.2502H337.364C337.334 61.1806 336.67 58.4504 335.371 56.0597C334.073 53.6394 332.257 51.7356 329.926 50.3484C327.624 48.9612 324.938 48.2676 321.868 48.2676C318.592 48.2676 315.714 49.0645 313.235 50.6583C310.755 52.2226 308.822 54.2887 307.435 56.8566C306.077 59.3949 305.384 62.1842 305.354 65.2243V74.6545C305.354 78.6096 306.077 82.0039 307.523 84.8373C308.97 87.6413 310.992 89.796 313.589 91.3013C316.186 92.777 319.226 93.5149 322.709 93.5149C325.041 93.5149 327.151 93.1902 329.04 92.5409C330.929 91.862 332.567 90.8733 333.955 89.5746C335.342 88.2759 336.39 86.6673 337.098 84.7488L352.062 86.4312C351.118 90.3863 349.317 93.8396 346.661 96.7911C344.034 99.7132 340.669 101.986 336.567 103.609C332.464 105.203 327.771 106 322.488 106Z" fill="#082C25"/>
<path d="M382.312 14V104.672H366.285V14H382.312Z" fill="#082C25"/>
<path d="M452.541 54.6429L437.931 56.2368C437.517 54.761 436.794 53.3738 435.761 52.0751C434.758 50.7764 433.4 49.7286 431.688 48.9317C429.976 48.1347 427.88 47.7363 425.401 47.7363C422.066 47.7363 419.262 48.4594 416.989 49.9057C414.746 51.3519 413.639 53.2262 413.669 55.5284C413.639 57.5059 414.362 59.1145 415.838 60.3542C417.343 61.5938 419.823 62.6121 423.276 63.409L434.876 65.8884C441.31 67.2756 446.092 69.4745 449.22 72.4851C452.378 75.4957 453.972 79.436 454.002 84.3061C453.972 88.5858 452.718 92.3638 450.239 95.64C447.789 98.8867 444.38 101.425 440.011 103.255C435.643 105.085 430.625 106 424.958 106C416.635 106 409.935 104.259 404.858 100.776C399.782 97.2634 396.756 92.3786 395.782 86.1213L411.411 84.616C412.119 87.6856 413.624 90.0026 415.927 91.5669C418.229 93.1312 421.225 93.9134 424.914 93.9134C428.722 93.9134 431.777 93.1312 434.079 91.5669C436.41 90.0026 437.576 88.0693 437.576 85.7671C437.576 83.8191 436.824 82.2105 435.318 80.9413C433.843 79.6721 431.54 78.6981 428.412 78.0192L416.812 75.5842C410.289 74.2265 405.463 71.939 402.335 68.7218C399.206 65.4751 397.657 61.3725 397.686 56.4139C397.657 52.2227 398.793 48.5922 401.095 45.5226C403.427 42.4235 406.659 40.0327 410.791 38.3503C414.953 36.6384 419.749 35.7825 425.18 35.7825C433.149 35.7825 439.421 37.4796 443.996 40.8739C448.6 44.2682 451.449 48.8579 452.541 54.6429Z" fill="#082C25"/>
<g clip-path="url(#clip0_87_1687)">
<path d="M484.002 104.39C490.845 104.39 496.392 98.8428 496.392 92C496.392 85.1572 490.845 79.61 484.002 79.61C477.159 79.61 471.612 85.1572 471.612 92C471.612 98.8428 477.159 104.39 484.002 104.39Z" stroke="#082C25" stroke-width="2.5"/>
<path d="M484.073 90.5973C484.745 90.5973 485.234 90.4629 485.528 90.2062C485.821 89.9618 485.98 89.5463 485.98 88.9597C485.98 88.3853 485.821 87.982 485.528 87.7253C485.234 87.4809 484.745 87.3587 484.073 87.3587H482.705V90.5973H484.073ZM482.705 92.8338V97.6H479.454V85H484.416C486.078 85 487.287 85.2811 488.057 85.8433C488.84 86.3932 489.218 87.2731 489.218 88.483C489.218 89.3141 489.023 89.9984 488.62 90.5362C488.216 91.0617 487.617 91.465 486.799 91.7094C487.251 91.8194 487.642 92.0516 487.996 92.406C488.351 92.7604 488.705 93.2982 489.06 94.0314L490.832 97.6H487.373L485.833 94.4714C485.528 93.8481 485.21 93.4081 484.892 93.1882C484.574 92.956 484.147 92.8338 483.621 92.8338H482.705Z" fill="#082C25"/>
</g>
<defs>
<clipPath id="clip0_87_1687">
<rect width="28" height="28" fill="white" transform="translate(470.002 78)"/>
</clipPath>
</defs>
</svg>
